<svg width="22" height="22" viewBox="0 0 22 22" fill="none" xmlns="http://www.w3.org/2000/svg">
<path d="M3.31755 12.8236C4.09155 9.09555 7.32716 6.44663 10.9668 6.44663C14.6053 6.44663 17.8409 9.09555 18.616 12.8236C18.6467 12.9716 18.7348 13.1012 18.8608 13.184C18.9868 13.2669 19.1404 13.2961 19.2879 13.2653C19.4354 13.2345 19.5646 13.1462 19.6472 13.0198C19.7298 12.8934 19.7589 12.7393 19.7282 12.5914C18.8464 8.35108 15.158 5.30829 10.9668 5.30829C6.7756 5.30829 3.08716 8.35108 2.20534 12.5914C2.17464 12.7393 2.20379 12.8934 2.28637 13.0198C2.36895 13.1462 2.4982 13.2345 2.64569 13.2653C2.79317 13.2961 2.94682 13.2669 3.07282 13.184C3.19881 13.1012 3.28685 12.9716 3.31755 12.8236ZM10.9554 8.72331C12.0089 8.72331 13.0193 9.14308 13.7642 9.89026C14.5091 10.6374 14.9276 11.6508 14.9276 12.7075C14.9276 13.7642 14.5091 14.7776 13.7642 15.5248C13.0193 16.2719 12.0089 16.6917 10.9554 16.6917C9.90196 16.6917 8.89163 16.2719 8.1467 15.5248C7.40178 14.7776 6.98328 13.7642 6.98328 12.7075C6.98328 11.6508 7.40178 10.6374 8.1467 9.89026C8.89163 9.14308 9.90196 8.72331 10.9554 8.72331Z" fill="#6A707C"/>
</svg>
